<?xml version="1.0" encoding="UTF-8"?>
<svg xmlns="http://www.w3.org/2000/svg" xmlns:xlink="http://www.w3.org/1999/xlink" width="375pt" height="374.999991pt" viewBox="0 0 375 374.999991" version="1.2">
<defs>
<clipPath id="clip1">
  <path d="M 103.25 81.09375 L 272 81.09375 L 272 249.84375 L 103.25 249.84375 Z M 103.25 81.09375 "/>
</clipPath>
<clipPath id="clip2">
  <path d="M 159.257812 131.003906 L 215.507812 131.003906 L 215.507812 200.003906 L 159.257812 200.003906 Z M 159.257812 131.003906 "/>
</clipPath>
</defs>
<g id="surface1">
<path style=" stroke:none;fill-rule:nonzero;fill:rgb(100%,100%,100%);fill-opacity:1;" d="M 138.085938 261.109375 L 236.933594 261.109375 L 236.933594 275.558594 L 138.085938 275.558594 Z M 138.085938 261.109375 "/>
<path style=" stroke:none;fill-rule:nonzero;fill:rgb(100%,100%,100%);fill-opacity:1;" d="M 159.257812 286.984375 L 215.714844 286.984375 L 215.714844 301.433594 L 159.257812 301.433594 Z M 159.257812 286.984375 "/>
<g clip-path="url(#clip1)" clip-rule="nonzero">
<path style=" stroke:none;fill-rule:nonzero;fill:rgb(100%,100%,100%);fill-opacity:1;" d="M 187.625 81.09375 C 141.113281 81.09375 103.25 118.957031 103.25 165.46875 C 103.25 211.980469 141.113281 249.84375 187.625 249.84375 C 234.140625 249.84375 272 211.980469 272 165.46875 C 272 118.957031 234.140625 81.09375 187.625 81.09375 Z M 187.625 95.769531 C 226.207031 95.769531 257.328125 126.886719 257.328125 165.46875 C 257.328125 204.050781 226.207031 235.171875 187.625 235.171875 C 149.046875 235.171875 117.925781 204.050781 117.925781 165.46875 C 117.925781 126.886719 149.046875 95.769531 187.625 95.769531 Z M 187.625 95.769531 "/>
</g>
<g clip-path="url(#clip2)" clip-rule="nonzero">
<path style=" stroke:none;fill-rule:nonzero;fill:rgb(100%,100%,100%);fill-opacity:1;" d="M 188.601562 131.003906 L 215.46875 131.003906 L 193.488281 158.109375 L 215.46875 158.109375 L 159.292969 200.003906 L 181.273438 167.96875 L 161.734375 167.96875 Z M 188.601562 131.003906 "/>
</g>
</g>
</svg>
